<?xml version="1.0" encoding="utf-8"?>
<!-- Generator: Adobe Illustrator 23.0.3, SVG Export Plug-In . SVG Version: 6.00 Build 0)  -->
<svg version="1.1" id="Layer_1" xmlns="http://www.w3.org/2000/svg" xmlns:xlink="http://www.w3.org/1999/xlink" x="0px" y="0px"
	 viewBox="0 0 260 145.4" style="enable-background:new 0 0 260 145.4;" xml:space="preserve">
<style type="text/css">
	.st0{fill:url(#SVGID_1_);}
	.st1{filter:url(#Adobe_OpacityMaskFilter);}
	.st2{filter:url(#Adobe_OpacityMaskFilter_1_);}
	.st3{mask:url(#SVGID_2_);fill:url(#SVGID_3_);}
	.st4{opacity:0.36;fill:url(#SVGID_4_);}
	.st5{filter:url(#Adobe_OpacityMaskFilter_2_);}
	.st6{filter:url(#Adobe_OpacityMaskFilter_3_);}
	.st7{mask:url(#SVGID_5_);fill:url(#SVGID_6_);}
	.st8{fill:url(#SVGID_7_);}
	.st9{filter:url(#Adobe_OpacityMaskFilter_4_);}
	.st10{filter:url(#Adobe_OpacityMaskFilter_5_);}
	.st11{mask:url(#SVGID_8_);fill:url(#SVGID_9_);}
	.st12{fill:url(#SVGID_10_);}
	.st13{filter:url(#Adobe_OpacityMaskFilter_6_);}
	.st14{filter:url(#Adobe_OpacityMaskFilter_7_);}
	.st15{mask:url(#SVGID_11_);fill:url(#SVGID_12_);}
	.st16{fill:url(#SVGID_13_);}
	.st17{filter:url(#Adobe_OpacityMaskFilter_8_);}
	.st18{filter:url(#Adobe_OpacityMaskFilter_9_);}
	.st19{mask:url(#SVGID_14_);fill:url(#SVGID_15_);}
	.st20{fill:url(#SVGID_16_);}
	.st21{filter:url(#Adobe_OpacityMaskFilter_10_);}
	.st22{filter:url(#Adobe_OpacityMaskFilter_11_);}
	.st23{mask:url(#SVGID_17_);fill:url(#SVGID_18_);}
	.st24{fill:url(#SVGID_19_);}
	.st25{filter:url(#Adobe_OpacityMaskFilter_12_);}
	.st26{filter:url(#Adobe_OpacityMaskFilter_13_);}
	.st27{mask:url(#SVGID_20_);fill:url(#SVGID_21_);}
	.st28{fill:url(#SVGID_22_);}
	.st29{filter:url(#Adobe_OpacityMaskFilter_14_);}
	.st30{filter:url(#Adobe_OpacityMaskFilter_15_);}
	.st31{mask:url(#SVGID_23_);fill:url(#SVGID_24_);}
	.st32{fill:url(#SVGID_25_);}
	.st33{filter:url(#Adobe_OpacityMaskFilter_16_);}
	.st34{filter:url(#Adobe_OpacityMaskFilter_17_);}
	.st35{mask:url(#SVGID_26_);fill:url(#SVGID_27_);}
	.st36{fill:url(#SVGID_28_);}
	.st37{filter:url(#Adobe_OpacityMaskFilter_18_);}
	.st38{filter:url(#Adobe_OpacityMaskFilter_19_);}
	.st39{mask:url(#SVGID_29_);fill:url(#SVGID_30_);}
	.st40{fill:url(#SVGID_31_);}
	.st41{filter:url(#Adobe_OpacityMaskFilter_20_);}
	.st42{filter:url(#Adobe_OpacityMaskFilter_21_);}
	.st43{mask:url(#SVGID_32_);fill:url(#SVGID_33_);}
	.st44{fill:url(#SVGID_34_);}
	.st45{filter:url(#Adobe_OpacityMaskFilter_22_);}
	.st46{filter:url(#Adobe_OpacityMaskFilter_23_);}
	.st47{mask:url(#SVGID_35_);fill:url(#SVGID_36_);}
	.st48{fill:url(#SVGID_37_);}
	.st49{fill:#FFFFFF;}
</style>
<g>
	<image style="overflow:visible;" width="213" height="120" xlink:href="9CFDB025.png"  transform="matrix(1 0 0 1 29 18)">
	</image>
</g>
<g>
	<linearGradient id="SVGID_1_" gradientUnits="userSpaceOnUse" x1="23.9659" y1="122.6569" x2="269.7938" y2="7.5331">
		<stop  offset="0" style="stop-color:#1DB1BB"/>
		<stop  offset="1" style="stop-color:#B7E793"/>
	</linearGradient>
	<rect x="0.2" class="st0" width="259.7" height="146"/>
</g>
<g>
	<defs>
		<filter id="Adobe_OpacityMaskFilter" filterUnits="userSpaceOnUse" x="89" y="24.7" width="138" height="107.1">
			<feFlood  style="flood-color:white;flood-opacity:1" result="back"/>
			<feBlend  in="SourceGraphic" in2="back" mode="normal"/>
		</filter>
	</defs>
	<mask maskUnits="userSpaceOnUse" x="89" y="24.7" width="138" height="107.1" id="SVGID_2_">
		<g class="st1">
			<defs>
				<filter id="Adobe_OpacityMaskFilter_1_" filterUnits="userSpaceOnUse" x="89" y="24.7" width="138" height="107.1">
					<feFlood  style="flood-color:white;flood-opacity:1" result="back"/>
					<feBlend  in="SourceGraphic" in2="back" mode="normal"/>
				</filter>
			</defs>
			<mask maskUnits="userSpaceOnUse" x="89" y="24.7" width="138" height="107.1" id="SVGID_2_">
				<g class="st2">
				</g>
			</mask>
			<linearGradient id="SVGID_3_" gradientUnits="userSpaceOnUse" x1="88.97" y1="78.275" x2="227" y2="78.275">
				<stop  offset="0" style="stop-color:#666666"/>
				<stop  offset="1" style="stop-color:#000000"/>
			</linearGradient>
			<polygon class="st3" points="227,24.7 142.1,109.7 119.9,131.8 89,131.8 196.1,24.7 			"/>
		</g>
	</mask>
	<linearGradient id="SVGID_4_" gradientUnits="userSpaceOnUse" x1="88.97" y1="78.275" x2="227" y2="78.275">
		<stop  offset="0" style="stop-color:#FFFFFF"/>
		<stop  offset="1" style="stop-color:#B7E793"/>
	</linearGradient>
	<polygon class="st4" points="227,24.7 142.1,109.7 119.9,131.8 89,131.8 196.1,24.7 	"/>
	<defs>
		<filter id="Adobe_OpacityMaskFilter_2_" filterUnits="userSpaceOnUse" x="132.5" y="44.7" width="78.5" height="61.7">
			<feFlood  style="flood-color:white;flood-opacity:1" result="back"/>
			<feBlend  in="SourceGraphic" in2="back" mode="normal"/>
		</filter>
	</defs>
	<mask maskUnits="userSpaceOnUse" x="132.5" y="44.7" width="78.5" height="61.7" id="SVGID_5_">
		<g class="st5">
			<defs>
				<filter id="Adobe_OpacityMaskFilter_3_" filterUnits="userSpaceOnUse" x="132.5" y="44.7" width="78.5" height="61.7">
					<feFlood  style="flood-color:white;flood-opacity:1" result="back"/>
					<feBlend  in="SourceGraphic" in2="back" mode="normal"/>
				</filter>
			</defs>
			<mask maskUnits="userSpaceOnUse" x="132.5" y="44.7" width="78.5" height="61.7" id="SVGID_5_">
				<g class="st6">
				</g>
			</mask>
			<linearGradient id="SVGID_6_" gradientUnits="userSpaceOnUse" x1="132.52" y1="75.5" x2="211" y2="75.5">
				<stop  offset="0" style="stop-color:#666666"/>
				<stop  offset="1" style="stop-color:#000000"/>
			</linearGradient>
			<polygon class="st7" points="211,44.7 149.3,106.3 132.5,106.3 194.2,44.7 			"/>
		</g>
	</mask>
	<linearGradient id="SVGID_7_" gradientUnits="userSpaceOnUse" x1="132.52" y1="75.5" x2="211" y2="75.5">
		<stop  offset="0" style="stop-color:#FFFFFF"/>
		<stop  offset="1" style="stop-color:#B7E793"/>
	</linearGradient>
	<polygon class="st8" points="211,44.7 149.3,106.3 132.5,106.3 194.2,44.7 	"/>
	<defs>
		<filter id="Adobe_OpacityMaskFilter_4_" filterUnits="userSpaceOnUse" x="107" y="109.7" width="39" height="22.2">
			<feFlood  style="flood-color:white;flood-opacity:1" result="back"/>
			<feBlend  in="SourceGraphic" in2="back" mode="normal"/>
		</filter>
	</defs>
	<mask maskUnits="userSpaceOnUse" x="107" y="109.7" width="39" height="22.2" id="SVGID_8_">
		<g class="st9">
			<defs>
				<filter id="Adobe_OpacityMaskFilter_5_" filterUnits="userSpaceOnUse" x="107" y="109.7" width="39" height="22.2">
					<feFlood  style="flood-color:white;flood-opacity:1" result="back"/>
					<feBlend  in="SourceGraphic" in2="back" mode="normal"/>
				</filter>
			</defs>
			<mask maskUnits="userSpaceOnUse" x="107" y="109.7" width="39" height="22.2" id="SVGID_8_">
				<g class="st10">
				</g>
			</mask>
			<linearGradient id="SVGID_9_" gradientUnits="userSpaceOnUse" x1="107.04" y1="120.745" x2="146" y2="120.745">
				<stop  offset="0" style="stop-color:#000000"/>
				<stop  offset="1" style="stop-color:#666666"/>
			</linearGradient>
			<polygon class="st11" points="146,109.7 123.8,131.8 107,131.8 129.2,109.7 			"/>
		</g>
	</mask>
	<linearGradient id="SVGID_10_" gradientUnits="userSpaceOnUse" x1="107.04" y1="120.745" x2="146" y2="120.745">
		<stop  offset="0" style="stop-color:#B7E793"/>
		<stop  offset="1" style="stop-color:#FFFFFF"/>
	</linearGradient>
	<polygon class="st12" points="146,109.7 123.8,131.8 107,131.8 129.2,109.7 	"/>
	<defs>
		<filter id="Adobe_OpacityMaskFilter_6_" filterUnits="userSpaceOnUse" x="156.5" y="30.7" width="78.5" height="61.7">
			<feFlood  style="flood-color:white;flood-opacity:1" result="back"/>
			<feBlend  in="SourceGraphic" in2="back" mode="normal"/>
		</filter>
	</defs>
	<mask maskUnits="userSpaceOnUse" x="156.5" y="30.7" width="78.5" height="61.7" id="SVGID_11_">
		<g class="st13">
			<defs>
				<filter id="Adobe_OpacityMaskFilter_7_" filterUnits="userSpaceOnUse" x="156.5" y="30.7" width="78.5" height="61.7">
					<feFlood  style="flood-color:white;flood-opacity:1" result="back"/>
					<feBlend  in="SourceGraphic" in2="back" mode="normal"/>
				</filter>
			</defs>
			<mask maskUnits="userSpaceOnUse" x="156.5" y="30.7" width="78.5" height="61.7" id="SVGID_11_">
				<g class="st14">
				</g>
			</mask>
			<linearGradient id="SVGID_12_" gradientUnits="userSpaceOnUse" x1="156.52" y1="61.5" x2="235" y2="61.5">
				<stop  offset="0" style="stop-color:#666666"/>
				<stop  offset="1" style="stop-color:#000000"/>
			</linearGradient>
			<polygon class="st15" points="235,30.7 173.3,92.3 156.5,92.3 218.2,30.7 			"/>
		</g>
	</mask>
	<linearGradient id="SVGID_13_" gradientUnits="userSpaceOnUse" x1="156.52" y1="61.5" x2="235" y2="61.5">
		<stop  offset="0" style="stop-color:#FFFFFF"/>
		<stop  offset="1" style="stop-color:#B7E793"/>
	</linearGradient>
	<polygon class="st16" points="235,30.7 173.3,92.3 156.5,92.3 218.2,30.7 	"/>
	<defs>
		<filter id="Adobe_OpacityMaskFilter_8_" filterUnits="userSpaceOnUse" x="198.5" y="57.7" width="37.6" height="37.6">
			<feFlood  style="flood-color:white;flood-opacity:1" result="back"/>
			<feBlend  in="SourceGraphic" in2="back" mode="normal"/>
		</filter>
	</defs>
	<mask maskUnits="userSpaceOnUse" x="198.5" y="57.7" width="37.6" height="37.6" id="SVGID_14_">
		<g class="st17">
			<defs>
				<filter id="Adobe_OpacityMaskFilter_9_" filterUnits="userSpaceOnUse" x="198.5" y="57.7" width="37.6" height="37.6">
					<feFlood  style="flood-color:white;flood-opacity:1" result="back"/>
					<feBlend  in="SourceGraphic" in2="back" mode="normal"/>
				</filter>
			</defs>
			<mask maskUnits="userSpaceOnUse" x="198.5" y="57.7" width="37.6" height="37.6" id="SVGID_14_">
				<g class="st18">
				</g>
			</mask>
			<linearGradient id="SVGID_15_" gradientUnits="userSpaceOnUse" x1="198.52" y1="76.53" x2="236.15" y2="76.53">
				<stop  offset="0" style="stop-color:#666666"/>
				<stop  offset="1" style="stop-color:#000000"/>
			</linearGradient>
			<polygon class="st19" points="236.1,57.7 236.1,74.5 215.3,95.3 198.5,95.3 			"/>
		</g>
	</mask>
	<linearGradient id="SVGID_16_" gradientUnits="userSpaceOnUse" x1="198.52" y1="76.53" x2="236.15" y2="76.53">
		<stop  offset="0" style="stop-color:#FFFFFF"/>
		<stop  offset="1" style="stop-color:#B7E793"/>
	</linearGradient>
	<polygon class="st20" points="236.1,57.7 236.1,74.5 215.3,95.3 198.5,95.3 	"/>
	<defs>
		<filter id="Adobe_OpacityMaskFilter_10_" filterUnits="userSpaceOnUse" x="162" y="99.7" width="49" height="32.2">
			<feFlood  style="flood-color:white;flood-opacity:1" result="back"/>
			<feBlend  in="SourceGraphic" in2="back" mode="normal"/>
		</filter>
	</defs>
	<mask maskUnits="userSpaceOnUse" x="162" y="99.7" width="49" height="32.2" id="SVGID_17_">
		<g class="st21">
			<defs>
				<filter id="Adobe_OpacityMaskFilter_11_" filterUnits="userSpaceOnUse" x="162" y="99.7" width="49" height="32.2">
					<feFlood  style="flood-color:white;flood-opacity:1" result="back"/>
					<feBlend  in="SourceGraphic" in2="back" mode="normal"/>
				</filter>
			</defs>
			<mask maskUnits="userSpaceOnUse" x="162" y="99.7" width="49" height="32.2" id="SVGID_17_">
				<g class="st22">
				</g>
			</mask>
			<linearGradient id="SVGID_18_" gradientUnits="userSpaceOnUse" x1="162.03" y1="115.745" x2="211" y2="115.745">
				<stop  offset="0" style="stop-color:#000000"/>
				<stop  offset="1" style="stop-color:#666666"/>
			</linearGradient>
			<polygon class="st23" points="211,99.7 178.8,131.8 162,131.8 194.2,99.7 			"/>
		</g>
	</mask>
	<linearGradient id="SVGID_19_" gradientUnits="userSpaceOnUse" x1="162.03" y1="115.745" x2="211" y2="115.745">
		<stop  offset="0" style="stop-color:#B7E793"/>
		<stop  offset="1" style="stop-color:#FFFFFF"/>
	</linearGradient>
	<polygon class="st24" points="211,99.7 178.8,131.8 162,131.8 194.2,99.7 	"/>
	<defs>
		<filter id="Adobe_OpacityMaskFilter_12_" filterUnits="userSpaceOnUse" x="142" y="39.7" width="94.2" height="92.1">
			<feFlood  style="flood-color:white;flood-opacity:1" result="back"/>
			<feBlend  in="SourceGraphic" in2="back" mode="normal"/>
		</filter>
	</defs>
	<mask maskUnits="userSpaceOnUse" x="142" y="39.7" width="94.2" height="92.1" id="SVGID_20_">
		<g class="st25">
			<defs>
				<filter id="Adobe_OpacityMaskFilter_13_" filterUnits="userSpaceOnUse" x="142" y="39.7" width="94.2" height="92.1">
					<feFlood  style="flood-color:white;flood-opacity:1" result="back"/>
					<feBlend  in="SourceGraphic" in2="back" mode="normal"/>
				</filter>
			</defs>
			<mask maskUnits="userSpaceOnUse" x="142" y="39.7" width="94.2" height="92.1" id="SVGID_20_">
				<g class="st26">
				</g>
			</mask>
			<linearGradient id="SVGID_21_" gradientUnits="userSpaceOnUse" x1="141.97" y1="85.775" x2="236.15" y2="85.775">
				<stop  offset="0" style="stop-color:#666666"/>
				<stop  offset="1" style="stop-color:#000000"/>
			</linearGradient>
			<polygon class="st27" points="236.1,39.7 236.1,68.6 209.4,95.3 205.1,99.7 172.9,131.8 142,131.8 234.1,39.7 			"/>
		</g>
	</mask>
	<linearGradient id="SVGID_22_" gradientUnits="userSpaceOnUse" x1="141.97" y1="85.775" x2="236.15" y2="85.775">
		<stop  offset="0" style="stop-color:#FFFFFF"/>
		<stop  offset="1" style="stop-color:#B7E793"/>
	</linearGradient>
	<polygon class="st28" points="236.1,39.7 236.1,68.6 209.4,95.3 205.1,99.7 172.9,131.8 142,131.8 234.1,39.7 	"/>
	<defs>
		<filter id="Adobe_OpacityMaskFilter_14_" filterUnits="userSpaceOnUse" x="137.8" y="37.4" width="39.2" height="30.8">
			<feFlood  style="flood-color:white;flood-opacity:1" result="back"/>
			<feBlend  in="SourceGraphic" in2="back" mode="normal"/>
		</filter>
	</defs>
	<mask maskUnits="userSpaceOnUse" x="137.8" y="37.4" width="39.2" height="30.8" id="SVGID_23_">
		<g class="st29">
			<defs>
				<filter id="Adobe_OpacityMaskFilter_15_" filterUnits="userSpaceOnUse" x="137.8" y="37.4" width="39.2" height="30.8">
					<feFlood  style="flood-color:white;flood-opacity:1" result="back"/>
					<feBlend  in="SourceGraphic" in2="back" mode="normal"/>
				</filter>
			</defs>
			<mask maskUnits="userSpaceOnUse" x="137.8" y="37.4" width="39.2" height="30.8" id="SVGID_23_">
				<g class="st30">
				</g>
			</mask>
			<linearGradient id="SVGID_24_" gradientUnits="userSpaceOnUse" x1="137.7746" y1="52.8535" x2="177" y2="52.8535">
				<stop  offset="0" style="stop-color:#666666"/>
				<stop  offset="1" style="stop-color:#000000"/>
			</linearGradient>
			<polygon class="st31" points="177,37.4 146.2,68.3 137.8,68.3 168.6,37.4 			"/>
		</g>
	</mask>
	<linearGradient id="SVGID_25_" gradientUnits="userSpaceOnUse" x1="137.7746" y1="52.8535" x2="177" y2="52.8535">
		<stop  offset="0" style="stop-color:#FFFFFF"/>
		<stop  offset="1" style="stop-color:#B7E793"/>
	</linearGradient>
	<polygon class="st32" points="177,37.4 146.2,68.3 137.8,68.3 168.6,37.4 	"/>
	<defs>
		<filter id="Adobe_OpacityMaskFilter_16_" filterUnits="userSpaceOnUse" x="193.8" y="97.4" width="39.2" height="30.8">
			<feFlood  style="flood-color:white;flood-opacity:1" result="back"/>
			<feBlend  in="SourceGraphic" in2="back" mode="normal"/>
		</filter>
	</defs>
	<mask maskUnits="userSpaceOnUse" x="193.8" y="97.4" width="39.2" height="30.8" id="SVGID_26_">
		<g class="st33">
			<defs>
				<filter id="Adobe_OpacityMaskFilter_17_" filterUnits="userSpaceOnUse" x="193.8" y="97.4" width="39.2" height="30.8">
					<feFlood  style="flood-color:white;flood-opacity:1" result="back"/>
					<feBlend  in="SourceGraphic" in2="back" mode="normal"/>
				</filter>
			</defs>
			<mask maskUnits="userSpaceOnUse" x="193.8" y="97.4" width="39.2" height="30.8" id="SVGID_26_">
				<g class="st34">
				</g>
			</mask>
			<linearGradient id="SVGID_27_" gradientUnits="userSpaceOnUse" x1="193.7746" y1="112.8535" x2="233" y2="112.8535">
				<stop  offset="0" style="stop-color:#666666"/>
				<stop  offset="1" style="stop-color:#000000"/>
			</linearGradient>
			<polygon class="st35" points="233,97.4 202.2,128.3 193.8,128.3 224.6,97.4 			"/>
		</g>
	</mask>
	<linearGradient id="SVGID_28_" gradientUnits="userSpaceOnUse" x1="193.7746" y1="112.8535" x2="233" y2="112.8535">
		<stop  offset="0" style="stop-color:#FFFFFF"/>
		<stop  offset="1" style="stop-color:#B7E793"/>
	</linearGradient>
	<polygon class="st36" points="233,97.4 202.2,128.3 193.8,128.3 224.6,97.4 	"/>
	<defs>
		<filter id="Adobe_OpacityMaskFilter_18_" filterUnits="userSpaceOnUse" x="103.3" y="71.9" width="39.2" height="30.8">
			<feFlood  style="flood-color:white;flood-opacity:1" result="back"/>
			<feBlend  in="SourceGraphic" in2="back" mode="normal"/>
		</filter>
	</defs>
	<mask maskUnits="userSpaceOnUse" x="103.3" y="71.9" width="39.2" height="30.8" id="SVGID_29_">
		<g class="st37">
			<defs>
				<filter id="Adobe_OpacityMaskFilter_19_" filterUnits="userSpaceOnUse" x="103.3" y="71.9" width="39.2" height="30.8">
					<feFlood  style="flood-color:white;flood-opacity:1" result="back"/>
					<feBlend  in="SourceGraphic" in2="back" mode="normal"/>
				</filter>
			</defs>
			<mask maskUnits="userSpaceOnUse" x="103.3" y="71.9" width="39.2" height="30.8" id="SVGID_29_">
				<g class="st38">
				</g>
			</mask>
			<linearGradient id="SVGID_30_" gradientUnits="userSpaceOnUse" x1="103.2746" y1="87.3535" x2="142.5" y2="87.3535">
				<stop  offset="0" style="stop-color:#666666"/>
				<stop  offset="1" style="stop-color:#000000"/>
			</linearGradient>
			<polygon class="st39" points="142.5,71.9 111.7,102.8 103.3,102.8 134.1,71.9 			"/>
		</g>
	</mask>
	<linearGradient id="SVGID_31_" gradientUnits="userSpaceOnUse" x1="103.2746" y1="87.3535" x2="142.5" y2="87.3535">
		<stop  offset="0" style="stop-color:#FFFFFF"/>
		<stop  offset="1" style="stop-color:#B7E793"/>
	</linearGradient>
	<polygon class="st40" points="142.5,71.9 111.7,102.8 103.3,102.8 134.1,71.9 	"/>
	<defs>
		<filter id="Adobe_OpacityMaskFilter_20_" filterUnits="userSpaceOnUse" x="74.2" y="106.4" width="33.8" height="25.4">
			<feFlood  style="flood-color:white;flood-opacity:1" result="back"/>
			<feBlend  in="SourceGraphic" in2="back" mode="normal"/>
		</filter>
	</defs>
	<mask maskUnits="userSpaceOnUse" x="74.2" y="106.4" width="33.8" height="25.4" id="SVGID_32_">
		<g class="st41">
			<defs>
				<filter id="Adobe_OpacityMaskFilter_21_" filterUnits="userSpaceOnUse" x="74.2" y="106.4" width="33.8" height="25.4">
					<feFlood  style="flood-color:white;flood-opacity:1" result="back"/>
					<feBlend  in="SourceGraphic" in2="back" mode="normal"/>
				</filter>
			</defs>
			<mask maskUnits="userSpaceOnUse" x="74.2" y="106.4" width="33.8" height="25.4" id="SVGID_32_">
				<g class="st42">
				</g>
			</mask>
			<linearGradient id="SVGID_33_" gradientUnits="userSpaceOnUse" x1="74.21" y1="119.135" x2="108" y2="119.135">
				<stop  offset="0" style="stop-color:#666666"/>
				<stop  offset="1" style="stop-color:#000000"/>
			</linearGradient>
			<polygon class="st43" points="108,106.4 82.6,131.8 74.2,131.8 99.6,106.4 			"/>
		</g>
	</mask>
	<linearGradient id="SVGID_34_" gradientUnits="userSpaceOnUse" x1="74.21" y1="119.135" x2="108" y2="119.135">
		<stop  offset="0" style="stop-color:#FFFFFF"/>
		<stop  offset="1" style="stop-color:#B7E793"/>
	</linearGradient>
	<polygon class="st44" points="108,106.4 82.6,131.8 74.2,131.8 99.6,106.4 	"/>
	<defs>
		<filter id="Adobe_OpacityMaskFilter_22_" filterUnits="userSpaceOnUse" x="115.5" y="39" width="74.7" height="58.7">
			<feFlood  style="flood-color:white;flood-opacity:1" result="back"/>
			<feBlend  in="SourceGraphic" in2="back" mode="normal"/>
		</filter>
	</defs>
	<mask maskUnits="userSpaceOnUse" x="115.5" y="39" width="74.7" height="58.7" id="SVGID_35_">
		<g class="st45">
			<defs>
				<filter id="Adobe_OpacityMaskFilter_23_" filterUnits="userSpaceOnUse" x="115.5" y="39" width="74.7" height="58.7">
					<feFlood  style="flood-color:white;flood-opacity:1" result="back"/>
					<feBlend  in="SourceGraphic" in2="back" mode="normal"/>
				</filter>
			</defs>
			<mask maskUnits="userSpaceOnUse" x="115.5" y="39" width="74.7" height="58.7" id="SVGID_35_">
				<g class="st46">
				</g>
			</mask>
			<linearGradient id="SVGID_36_" gradientUnits="userSpaceOnUse" x1="115.5439" y1="68.3536" x2="190.2307" y2="68.3536">
				<stop  offset="0" style="stop-color:#666666"/>
				<stop  offset="1" style="stop-color:#000000"/>
			</linearGradient>
			<polygon class="st47" points="190.2,39 131.5,97.7 115.5,97.7 174.3,39 			"/>
		</g>
	</mask>
	<linearGradient id="SVGID_37_" gradientUnits="userSpaceOnUse" x1="115.5439" y1="68.3536" x2="190.2307" y2="68.3536">
		<stop  offset="0" style="stop-color:#FFFFFF"/>
		<stop  offset="1" style="stop-color:#B7E793"/>
	</linearGradient>
	<polygon class="st48" points="190.2,39 131.5,97.7 115.5,97.7 174.3,39 	"/>
</g>
<g>
	<g>
		<path class="st49" d="M167.8,102c0-0.7,0.6-1.3,1.3-1.3c0.7,0,1.3,0.6,1.3,1.3s-0.6,1.3-1.3,1.3
			C168.3,103.3,167.8,102.7,167.8,102z M168.3,102c0,0.4,0.3,0.8,0.8,0.8c0.4,0,0.8-0.3,0.8-0.8s-0.3-0.8-0.8-0.8
			C168.6,101.3,168.3,101.6,168.3,102z"/>
	</g>
	<g>
		<path class="st49" d="M152.8,76c0-0.7,0.6-1.3,1.3-1.3c0.7,0,1.3,0.6,1.3,1.3s-0.6,1.3-1.3,1.3C153.3,77.3,152.8,76.7,152.8,76z
			 M153.3,76c0,0.4,0.3,0.8,0.8,0.8c0.4,0,0.8-0.3,0.8-0.8s-0.3-0.8-0.8-0.8C153.6,75.3,153.3,75.6,153.3,76z"/>
	</g>
	<g>
		<path class="st49" d="M88.8,65c0-0.7,0.6-1.3,1.3-1.3c0.7,0,1.3,0.6,1.3,1.3s-0.6,1.3-1.3,1.3C89.3,66.3,88.8,65.7,88.8,65z
			 M89.3,65c0,0.4,0.3,0.8,0.8,0.8c0.4,0,0.8-0.3,0.8-0.8s-0.3-0.8-0.8-0.8C89.6,64.3,89.3,64.6,89.3,65z"/>
	</g>
	<g>
		<path class="st49" d="M136.8,40c0-0.7,0.6-1.3,1.3-1.3c0.7,0,1.3,0.6,1.3,1.3c0,0.7-0.6,1.3-1.3,1.3
			C137.3,41.3,136.8,40.7,136.8,40z M137.3,40c0,0.4,0.3,0.8,0.8,0.8c0.4,0,0.8-0.3,0.8-0.8c0-0.4-0.3-0.8-0.8-0.8
			C137.6,39.3,137.3,39.6,137.3,40z"/>
	</g>
	<g>
		<path class="st49" d="M66.8,118c0-0.7,0.6-1.3,1.3-1.3c0.7,0,1.3,0.6,1.3,1.3s-0.6,1.3-1.3,1.3C67.3,119.3,66.8,118.7,66.8,118z
			 M67.3,118c0,0.4,0.3,0.8,0.8,0.8c0.4,0,0.8-0.3,0.8-0.8s-0.3-0.8-0.8-0.8C67.6,117.3,67.3,117.6,67.3,118z"/>
	</g>
	<circle class="st49" cx="149.5" cy="91.5" r="0.5"/>
	<circle class="st49" cx="100.5" cy="121.5" r="0.5"/>
	<circle class="st49" cx="130.5" cy="41.5" r="0.5"/>
	<circle class="st49" cx="160.5" cy="117.5" r="0.5"/>
	<circle class="st49" cx="118.5" cy="69.5" r="0.5"/>
	<circle class="st49" cx="49.5" cy="100.5" r="0.5"/>
	<circle class="st49" cx="96.5" cy="78.5" r="0.5"/>
	<circle class="st49" cx="125.5" cy="123.5" r="0.5"/>
</g>
</svg>
